<svg width="64" height="64" viewBox="0 0 64 64" fill="none" xmlns="http://www.w3.org/2000/svg">
<circle cx="32" cy="32" r="29" stroke="white" stroke-width="6"/>
<path d="M30.3326 17C29.8816 17 29.4905 17.1564 29.1604 17.4691L20.4893 25.6843H13.6674C13.2153 25.6843 12.8253 25.8406 12.4952 26.1534C12.1651 26.4661 12 26.8366 12 27.2639V36.7361C12 37.1633 12.1651 37.5339 12.4952 37.8466C12.8253 38.1594 13.2164 38.3157 13.6674 38.3157H20.4893L29.1604 46.5309C29.4905 46.8436 29.8806 47 30.3326 47C30.7847 47 31.1747 46.8436 31.5048 46.5309C31.8349 46.2181 32 45.8486 32 45.4203V18.5797C32 18.1524 31.8349 17.7819 31.5059 17.4691C31.1768 17.1564 30.7857 17 30.3337 17H30.3326Z" fill="white"/>
<path d="M40.0399 35.515C40.7419 34.434 41.0929 33.266 41.0929 32.01C41.0929 30.754 40.7419 29.582 40.0399 28.492C39.3379 27.402 38.4099 26.634 37.2529 26.188C37.0879 26.106 36.8809 26.064 36.6339 26.064C36.2049 26.064 35.8329 26.217 35.5189 26.522C35.2049 26.829 35.0479 27.203 35.0479 27.649C35.0479 27.996 35.1469 28.289 35.3459 28.528C35.5449 28.767 35.7829 28.974 36.0639 29.147C36.3439 29.32 36.6249 29.51 36.9059 29.717C37.1869 29.924 37.4259 30.216 37.6239 30.596C37.8219 30.976 37.9209 31.447 37.9209 32.008C37.9209 32.569 37.8219 33.04 37.6239 33.42C37.4259 33.8 37.1869 34.093 36.9059 34.299C36.6249 34.505 36.3439 34.696 36.0639 34.869C35.7829 35.042 35.5439 35.249 35.3459 35.488C35.1479 35.727 35.0479 36.021 35.0479 36.367C35.0479 36.813 35.2059 37.188 35.5189 37.494C35.8329 37.798 36.2039 37.953 36.6339 37.953C36.8809 37.953 37.0879 37.912 37.2529 37.829C38.4089 37.366 39.3379 36.594 40.0399 35.512V35.515Z" fill="white"/>
<path d="M45.8744 39.1208C47.2915 36.9463 48 34.5714 48 31.999C48 29.4276 47.2915 27.0547 45.8744 24.8771C44.4574 22.7026 42.5822 21.1173 40.2497 20.1262C40.0337 20.0427 39.8167 20 39.5997 20C39.1667 20 38.7913 20.1598 38.4744 20.4793C38.1574 20.7988 38 21.1763 38 21.6138C38 22.2691 38.325 22.7647 38.975 23.1015C39.9075 23.5889 40.5414 23.9583 40.8744 24.2106C42.1078 25.1183 43.0707 26.2559 43.762 27.6255C44.4534 28.9952 44.7996 30.4523 44.7996 32C44.7996 33.5457 44.4534 35.0038 43.762 36.3745C43.0707 37.7441 42.1078 38.8817 40.8744 39.7894C40.5414 40.0417 39.9075 40.4111 38.975 40.8985C38.325 41.2353 38 41.7298 38 42.3862C38 42.8227 38.1585 43.2012 38.4744 43.5207C38.7903 43.8402 39.1738 44 39.6239 44C39.8238 44 40.0327 43.9573 40.2487 43.8738C42.5811 42.8817 44.4574 41.2984 45.8734 39.1219L45.8744 39.1208Z" fill="white"/>
</svg>
