<svg width="64" height="64" viewBox="0 0 64 64" fill="none" xmlns="http://www.w3.org/2000/svg">
<circle cx="32" cy="32" r="29" stroke="white" stroke-width="6"/>
<path d="M35.3326 17C34.8816 17 34.4905 17.1564 34.1604 17.4691L25.4893 25.6843H18.6674C18.2153 25.6843 17.8253 25.8406 17.4952 26.1534C17.1651 26.4661 17 26.8366 17 27.2639V36.7361C17 37.1633 17.1651 37.5339 17.4952 37.8466C17.8253 38.1594 18.2164 38.3157 18.6674 38.3157H25.4893L34.1604 46.5309C34.4905 46.8436 34.8806 47 35.3326 47C35.7847 47 36.1747 46.8436 36.5048 46.5309C36.8349 46.2181 37 45.8486 37 45.4203V18.5797C37 18.1524 36.8349 17.7819 36.5059 17.4691C36.1768 17.1564 35.7857 17 35.3337 17H35.3326Z" fill="white"/>
<path d="M45.0399 35.515C45.7419 34.434 46.0929 33.266 46.0929 32.01C46.0929 30.754 45.7419 29.582 45.0399 28.492C44.3379 27.402 43.4099 26.634 42.2529 26.188C42.0879 26.106 41.8809 26.064 41.6339 26.064C41.2049 26.064 40.8329 26.217 40.5189 26.522C40.2049 26.829 40.0479 27.203 40.0479 27.649C40.0479 27.996 40.1469 28.289 40.3459 28.528C40.5449 28.767 40.7829 28.974 41.0639 29.147C41.3439 29.32 41.6249 29.51 41.9059 29.717C42.1869 29.924 42.4259 30.216 42.6239 30.596C42.8219 30.976 42.9209 31.447 42.9209 32.008C42.9209 32.569 42.8219 33.04 42.6239 33.42C42.4259 33.8 42.1869 34.093 41.9059 34.299C41.6249 34.505 41.3439 34.696 41.0639 34.869C40.7829 35.042 40.5439 35.249 40.3459 35.488C40.1479 35.727 40.0479 36.021 40.0479 36.367C40.0479 36.813 40.2059 37.188 40.5189 37.494C40.8329 37.798 41.2039 37.953 41.6339 37.953C41.8809 37.953 42.0879 37.912 42.2529 37.829C43.4089 37.366 44.3379 36.594 45.0399 35.512V35.515Z" fill="white"/>
</svg>
