<svg width="64" height="64" viewBox="0 0 64 64" fill="none" xmlns="http://www.w3.org/2000/svg">
<circle cx="32" cy="32" r="29" stroke="white" stroke-width="6"/>
<path d="M44.2053 32L47.6703 28.535C47.8901 28.3152 48 28.0474 48 27.7337C48 27.4199 47.8901 27.1522 47.6703 26.9323L46.0677 25.3297C45.8478 25.1099 45.5801 25 45.2663 25C44.9526 25 44.6848 25.1099 44.465 25.3297L41 28.7947L37.535 25.3297C37.3152 25.1099 37.0474 25 36.7337 25C36.4199 25 36.1522 25.1099 35.9323 25.3297L34.3297 26.9323C34.1099 27.1522 34 27.4199 34 27.7337C34 28.0474 34.1099 28.3152 34.3297 28.535L37.7947 32L34.3297 35.465C34.1099 35.6848 34 35.9526 34 36.2663C34 36.5801 34.1099 36.8478 34.3297 37.0677L35.9323 38.6703C36.1522 38.8901 36.4199 39 36.7337 39C37.0474 39 37.3152 38.8901 37.535 38.6703L41 35.2053L44.465 38.6703C44.6848 38.8901 44.9516 39 45.2663 39C45.5811 39 45.8478 38.8901 46.0677 38.6703L47.6703 37.0677C47.8901 36.8478 48 36.5801 48 36.2663C48 35.9526 47.8901 35.6848 47.6703 35.465L44.2053 32Z" fill="white"/>
<path d="M30.3326 17C29.8816 17 29.4905 17.1564 29.1604 17.4691L20.4893 25.6843H13.6674C13.2153 25.6843 12.8253 25.8406 12.4952 26.1534C12.1651 26.4661 12 26.8366 12 27.2639V36.7361C12 37.1633 12.1651 37.5339 12.4952 37.8466C12.8253 38.1594 13.2164 38.3157 13.6674 38.3157H20.4893L29.1604 46.5309C29.4905 46.8436 29.8806 47 30.3326 47C30.7847 47 31.1747 46.8436 31.5048 46.5309C31.8349 46.2181 32 45.8486 32 45.4203V18.5797C32 18.1524 31.8349 17.7819 31.5059 17.4691C31.1768 17.1564 30.7857 17 30.3337 17H30.3326Z" fill="white"/>
</svg>
