<svg width="490" height="490" viewBox="0 0 490 490" fill="none" xmlns="http://www.w3.org/2000/svg">
<path d="M20.7008 281.901L52.8008 282.101C57.6008 306.801 67.1008 330.801 81.5008 352.601L58.7008 375.201C50.5008 383.301 50.5008 396.401 58.5008 404.601L83.1008 429.501C91.2008 437.701 104.301 437.701 112.501 429.701L135.301 407.101C156.901 421.701 180.801 431.601 205.501 436.601L205.301 468.701C205.201 480.201 214.501 489.501 226.001 489.601L261.001 489.801C272.501 489.901 281.801 480.601 281.901 469.101L282.101 437.001C306.801 432.201 330.801 422.701 352.601 408.301L375.201 431.101C383.301 439.301 396.401 439.301 404.601 431.301L429.501 406.701C437.701 398.601 437.701 385.501 429.701 377.301L407.101 354.501C421.701 332.901 431.601 309.001 436.601 284.301L468.701 284.501C480.201 284.601 489.501 275.301 489.601 263.801L489.801 228.801C489.901 217.301 480.601 208.001 469.101 207.901L437.001 207.701C432.201 183.001 422.701 159.001 408.301 137.201L431.101 114.601C439.301 106.501 439.301 93.4008 431.301 85.2008L406.701 60.3008C398.601 52.1008 385.501 52.1008 377.301 60.1008L354.501 82.7008C332.901 68.1008 309.001 58.2008 284.301 53.2008L284.501 21.1008C284.601 9.6008 275.301 0.300799 263.801 0.200799L228.801 0.000798959C217.301 -0.099201 208.001 9.2008 207.901 20.7008L207.601 52.8008C182.801 57.6008 158.801 67.1008 137.101 81.5008L114.501 58.7008C106.401 50.5008 93.3008 50.5008 85.1008 58.5008L60.3008 83.1008C52.1008 91.2008 52.1008 104.301 60.1008 112.501L82.7008 135.301C68.1008 156.901 58.2008 180.801 53.2008 205.501L21.1008 205.301C9.6008 205.201 0.300799 214.501 0.200799 226.001L0.000798959 261.001C-0.099201 272.401 9.2008 281.801 20.7008 281.901ZM179.301 178.601C215.901 142.401 274.801 142.701 311.001 179.301C347.201 215.901 346.901 274.801 310.301 311.001C273.701 347.201 214.801 346.901 178.601 310.301C142.401 273.701 142.701 214.801 179.301 178.601Z" fill="white"/>
</svg>
