<svg width="20" height="368" viewBox="0 0 20 368" fill="none" xmlns="http://www.w3.org/2000/svg">
<path fill-rule="evenodd" clip-rule="evenodd" d="M9.93142 197.83C14.1115 197.83 17.5001 194.441 17.5001 190.261C17.5001 186.081 14.1115 182.692 9.93142 182.692C5.75135 182.692 2.36274 186.081 2.36274 190.261C2.36274 194.441 5.75135 197.83 9.93142 197.83ZM9.93142 200.44C15.5529 200.44 19.9999 195.882 19.9999 190.261C19.9999 184.64 15.5529 180.082 9.93142 180.082C4.30995 180.082 0 184.64 0 190.261C0 195.882 4.30995 200.44 9.93142 200.44Z" fill="white"/>
<path d="M8.99992 0H10.9999V180.604H8.99992V0Z" fill="white"/>
<path d="M8.99992 199.396H10.9999V367.995H8.99992V199.396Z" fill="white"/>
</svg>
