<svg width="39" height="705" viewBox="0 0 39 705" fill="none" xmlns="http://www.w3.org/2000/svg">
<path fill-rule="evenodd" clip-rule="evenodd" d="M19.5 379C27.5081 379 34 372.508 34 364.5C34 356.492 27.5081 350 19.5 350C11.4919 350 5 356.492 5 364.5C5 372.508 11.4919 379 19.5 379ZM19.5 384C30.2696 384 39 375.27 39 364.5C39 353.73 30.2696 345 19.5 345C8.73045 345 0 353.73 0 364.5C0 375.27 8.73045 384 19.5 384Z" fill="white"/>
<path d="M17 0H22V346H17V0Z" fill="white"/>
<path d="M17 382H22V705H17V382Z" fill="white"/>
</svg>
