<svg width="107" height="54" viewBox="0 0 107 54" fill="none" xmlns="http://www.w3.org/2000/svg">
<path d="M62.1121 1.00001C61.9446 1.00101 61.588 1.034 61.3941 1.1041L61.0056 1.27063L61.9664 5.25011L48.1131 5.28134C39.4596 5.2997 29.63 4.00416 22.2586 4.22662C14.8872 4.44907 5.37382 7.33526 5.37382 7.33526L3.8546 7.75507C1.71783 8.34307 1 18.565 1 26.2716C1 26.3952 1.00296 26.5218 1.00347 26.6463C1.00296 26.7709 1 26.8974 1 27.021C1 34.7276 1.71783 44.9495 3.8546 45.5376L5.37382 45.9574C5.37382 45.9574 14.8872 48.8435 22.2586 49.066C29.63 49.2885 39.4596 47.9929 48.1131 48.0113L61.9664 48.0425L61.0056 52.022L61.3941 52.1885C61.588 52.2586 61.9446 52.2916 62.1121 52.2926C62.2062 52.2932 62.3069 52.2843 62.4103 52.2648C62.4448 52.2584 62.4796 52.2492 62.5144 52.2406C62.5482 52.2322 62.5846 52.2231 62.6185 52.2128C62.6882 52.1914 62.7587 52.1659 62.8266 52.1365C63.0288 52.0485 63.2189 51.9252 63.3573 51.7722C63.3584 51.771 63.3597 51.7699 63.3607 51.7687C63.4301 51.6914 63.4842 51.6074 63.5237 51.5154L64.873 48.046L77.0753 48.0737C79.7281 49.3996 82.1268 49.2638 85.2437 49.2638C100.034 49.2638 106.069 39.6507 105.999 26.9065C105.999 26.8199 105.997 26.7327 105.996 26.6463C105.997 26.5599 105.999 26.4727 105.999 26.3861C106.069 13.6419 100.034 4.02886 85.2437 4.02886C82.1268 4.02886 79.7281 3.89301 77.0753 5.21889L64.873 5.24664L63.5237 1.77718C63.4842 1.6852 63.4301 1.60124 63.3607 1.52391C63.3596 1.52276 63.3584 1.52162 63.3573 1.52044C63.2189 1.3674 63.0288 1.24408 62.8266 1.15615C62.7587 1.12668 62.6882 1.10121 62.6185 1.07982C62.5846 1.06949 62.5482 1.06044 62.5144 1.05207C62.4796 1.04345 62.4448 1.03427 62.4103 1.02778C62.3069 1.00828 62.2062 0.999472 62.1121 1.00002V1.00001V1.00001Z" fill="#FF0000"/>
<path d="M62.1073 1.02699C61.9399 1.02799 61.5835 1.06081 61.3896 1.13097L61.0014 1.29733L61.9617 5.28303L48.1156 5.31422C47.8453 5.31477 47.5734 5.31266 47.3009 5.31076C46.756 5.30695 46.2065 5.29916 45.6542 5.28649C44.8452 5.26795 44.0269 5.24071 43.2067 5.20678C43.1628 5.20497 43.1189 5.20172 43.075 5.19985C41.4184 5.12996 39.7461 5.03441 38.0794 4.92951C35.8245 4.78725 33.5843 4.62925 31.4094 4.49975C29.7978 4.40379 28.222 4.32457 26.7086 4.27794C25.6692 4.24592 24.6603 4.22731 23.6856 4.23288C23.2068 4.23563 22.7351 4.24323 22.2746 4.25714C21.8142 4.27106 21.345 4.29655 20.8706 4.32993C20.6334 4.34662 20.396 4.36433 20.1565 4.38538C19.4388 4.44842 18.7093 4.53193 17.9828 4.62799C17.9817 4.6281 17.9805 4.62788 17.9794 4.62799C17.4943 4.69216 17.0122 4.76391 16.5303 4.8394C16.0484 4.9149 15.5681 4.99443 15.0951 5.07855C14.6232 5.16246 14.1554 5.25215 13.698 5.34195C13.6969 5.34217 13.6956 5.34173 13.6945 5.34195C13.4653 5.38696 13.243 5.43114 13.0185 5.47712C12.3461 5.61482 11.6946 5.75616 11.0771 5.89648C11.076 5.8967 11.0748 5.89626 11.0737 5.89648C10.6614 5.99019 10.2652 6.08227 9.88458 6.17375C9.12314 6.35657 8.42962 6.53249 7.82882 6.69015C6.92762 6.92666 6.23329 7.12571 5.82159 7.24469C5.54717 7.32408 5.39865 7.36946 5.39865 7.36946L3.88022 7.78535C3.78011 7.81295 3.68297 7.86221 3.58902 7.93092C3.5571 7.95427 3.52663 7.97927 3.49542 8.00717C3.37343 8.11581 3.25679 8.259 3.14528 8.43346C3.14477 8.43424 3.14579 8.43617 3.14528 8.43693C3.08977 8.52396 3.03185 8.61887 2.97888 8.72113C2.97841 8.72201 2.97934 8.7237 2.97888 8.72459C2.92589 8.82703 2.87336 8.93688 2.82287 9.05384C2.82246 9.05484 2.82328 9.0563 2.82287 9.0573C2.41607 10.0011 2.08847 11.4009 1.83139 13.0742C1.83122 13.0753 1.83156 13.0765 1.83139 13.0777C1.8274 13.1036 1.82495 13.1313 1.82099 13.1574C1.76501 13.5268 1.71094 13.9113 1.66152 14.3046C1.65814 14.3315 1.65447 14.3573 1.65112 14.3843C1.59548 14.8327 1.5461 15.294 1.49859 15.7671C1.49847 15.7682 1.4987 15.7695 1.49859 15.7706C1.4749 16.0066 1.45098 16.2469 1.42925 16.488C1.42915 16.4891 1.42935 16.4903 1.42925 16.4915C1.40753 16.7326 1.38665 16.9738 1.36685 17.2193C1.36676 17.2204 1.36694 17.2216 1.36685 17.2228C1.32716 17.7149 1.29162 18.2149 1.25938 18.72C1.25931 18.7211 1.25945 18.7223 1.25938 18.7235C1.16258 20.2411 1.09746 21.8054 1.06178 23.333C1.06175 23.3342 1.0618 23.3353 1.06178 23.3365C1.03799 24.3556 1.0271 25.3564 1.0271 26.3206C1.0271 26.4279 1.03016 26.5383 1.03057 26.6464C1.03016 26.7545 1.0271 26.8648 1.0271 26.9722C1.0271 27.9363 1.03799 28.9371 1.06177 29.9562C1.06179 29.9574 1.06174 29.9585 1.06177 29.9597C1.09745 31.4873 1.16257 33.0516 1.25937 34.5692C1.25944 34.5704 1.2593 34.5716 1.25937 34.5727C1.29161 35.0778 1.32715 35.5778 1.36684 36.0699C1.36693 36.0711 1.36675 36.0723 1.36684 36.0734C1.38664 36.3189 1.40752 36.5601 1.42924 36.8012C1.42934 36.8024 1.42914 36.8036 1.42924 36.8047C1.45097 37.0458 1.47488 37.286 1.49857 37.5221C1.49869 37.5232 1.49846 37.5244 1.49857 37.5256C1.54608 37.9987 1.59547 38.46 1.65111 38.9084C1.65446 38.9354 1.65813 38.9612 1.66151 38.9881C1.71093 39.3814 1.765 39.7658 1.82098 40.1353C1.82493 40.1614 1.82739 40.1891 1.83138 40.215C1.83155 40.2162 1.83121 40.2174 1.83138 40.2185C2.08846 41.8918 2.41606 43.2916 2.82286 44.2354C2.82327 44.2364 2.82245 44.2379 2.82286 44.2389C2.87335 44.3558 2.92588 44.4657 2.97886 44.5681C2.97933 44.569 2.9784 44.5707 2.97886 44.5716C3.03184 44.6738 3.08976 44.7687 3.14527 44.8558C3.14578 44.8565 3.14476 44.8584 3.14527 44.8592C3.25678 45.0337 3.37342 45.1769 3.4954 45.2855C3.52662 45.3134 3.55709 45.3384 3.58901 45.3618C3.68295 45.4305 3.7801 45.4797 3.88021 45.5073L5.39864 45.9232C5.39864 45.9232 5.54716 45.9686 5.82158 46.048C6.23328 46.167 6.92761 46.366 7.82881 46.6025C8.42961 46.7602 9.12313 46.9361 9.88457 47.1189C10.2652 47.2104 10.6614 47.3025 11.0737 47.3962C11.0748 47.3964 11.076 47.396 11.0771 47.3962C11.6946 47.5365 12.3461 47.6779 13.0185 47.8156C13.243 47.8616 13.4653 47.9057 13.6945 47.9507C13.6956 47.951 13.6968 47.9505 13.698 47.9507C14.1554 48.0405 14.6232 48.1302 15.095 48.2141C15.5681 48.2983 16.0484 48.3778 16.5303 48.4533C17.0122 48.5288 17.4943 48.6005 17.9794 48.6647C17.9805 48.6648 17.9817 48.6646 17.9828 48.6647C18.7093 48.7608 19.4388 48.8443 20.1565 48.9073C20.396 48.9284 20.6334 48.9461 20.8706 48.9628C21.345 48.9961 21.8141 49.0216 22.2746 49.0355C22.7351 49.0495 23.2068 49.0571 23.6856 49.0598C24.6602 49.0654 25.6692 49.0468 26.7086 49.0148C28.222 48.9681 29.7977 48.8889 31.4094 48.7929C33.5843 48.6634 35.8245 48.5054 38.0794 48.3632C39.7461 48.2583 41.4184 48.1627 43.0749 48.0928C43.1189 48.091 43.1628 48.0877 43.2067 48.0859C44.0269 48.052 44.8452 48.0247 45.6542 48.0062C46.2065 47.9935 46.756 47.9857 47.3009 47.9819C47.5733 47.98 47.8453 47.9779 48.1156 47.9785L61.9616 48.0097L61.0014 51.9954L61.3896 52.1617C61.5835 52.2319 61.9399 52.2647 62.1072 52.2657C62.2014 52.2663 62.3019 52.2575 62.4054 52.238C62.4399 52.2315 62.4746 52.2223 62.5094 52.2137C62.5432 52.2053 62.5796 52.1963 62.6134 52.186C62.6831 52.1646 62.7536 52.1392 62.8214 52.1097C63.0235 52.0217 63.2135 51.8955 63.3518 51.7424C63.3529 51.7412 63.3542 51.7401 63.3553 51.7389C63.4246 51.6615 63.4787 51.5779 63.5182 51.4859L64.8668 48.0131L77.0627 48.0409C77.1455 48.0823 77.2264 48.1235 77.3088 48.1622C77.6393 48.3174 77.9646 48.4502 78.2899 48.5642C78.4521 48.621 78.6136 48.6724 78.7752 48.7202C79.341 48.8874 79.9055 49.0031 80.4774 49.0806C80.8042 49.1249 81.1348 49.1576 81.4689 49.1811C81.6359 49.1929 81.8055 49.2011 81.975 49.2088C82.3142 49.2244 82.656 49.2325 83.0081 49.2366C83.7123 49.2448 84.448 49.2366 85.2268 49.2366C86.3817 49.2366 87.4813 49.1777 88.5306 49.0633C88.9503 49.0175 89.3616 48.9637 89.7647 48.9004C90.571 48.7737 91.3432 48.6099 92.084 48.4152C92.2692 48.3665 92.454 48.3155 92.6352 48.2627C93.1787 48.1042 93.7016 47.9271 94.2091 47.7324C94.3782 47.6675 94.5466 47.6037 94.7118 47.5349C95.0422 47.3972 95.3643 47.2513 95.679 47.0982C95.8363 47.0216 95.9935 46.9428 96.147 46.8625C96.4539 46.7018 96.7534 46.532 97.0449 46.3565C97.1906 46.2687 97.3329 46.1775 97.4747 46.0861C98.1841 45.6292 98.8462 45.1295 99.4612 44.5854C99.9525 44.1507 100.415 43.6893 100.848 43.2026C100.848 43.2019 100.847 43.1998 100.848 43.1991C100.956 43.0779 101.063 42.956 101.167 42.8317C101.167 42.8311 101.166 42.829 101.167 42.8283C101.271 42.704 101.375 42.5779 101.475 42.4505C101.476 42.4498 101.475 42.4477 101.475 42.447C101.778 42.0635 102.065 41.6686 102.335 41.2583C102.336 41.2575 102.335 41.2556 102.335 41.2548C102.425 41.1185 102.516 40.9815 102.602 40.8424C102.603 40.8415 102.601 40.8397 102.602 40.8389C102.862 40.4199 103.109 39.9902 103.337 39.5462C103.337 39.5453 103.337 39.5436 103.337 39.5427C103.413 39.3953 103.486 39.2457 103.559 39.0956C103.559 39.0947 103.558 39.0931 103.559 39.0921C103.631 38.9421 103.705 38.7908 103.774 38.6381C103.774 38.6371 103.773 38.6356 103.774 38.6347C103.912 38.3283 104.044 38.0189 104.169 37.7024C104.169 37.7014 104.169 37.6999 104.169 37.6989C104.231 37.5411 104.29 37.3809 104.349 37.2206C104.35 37.2196 104.349 37.2181 104.349 37.2171C104.408 37.0569 104.467 36.8946 104.523 36.7319C104.578 36.5692 104.633 36.4049 104.686 36.2398C104.686 36.2388 104.685 36.2373 104.686 36.2363C104.738 36.0712 104.789 35.9047 104.838 35.7372C104.838 35.7361 104.838 35.7348 104.838 35.7338C104.887 35.5664 104.935 35.3975 104.98 35.2278C104.981 35.2267 104.98 35.2254 104.98 35.2243C105.118 34.713 105.243 34.1922 105.351 33.6612V33.6578C105.387 33.4815 105.419 33.3024 105.452 33.124V33.1206C105.682 31.8653 105.836 30.5628 105.913 29.2146C105.913 29.2134 105.913 29.2122 105.913 29.2111C105.924 29.0195 105.933 28.8256 105.94 28.6323C105.941 28.6312 105.94 28.63 105.94 28.6289C105.956 28.241 105.968 27.8517 105.972 27.4574C105.972 27.4563 105.972 27.4551 105.972 27.454C105.974 27.2562 105.973 27.0571 105.972 26.8578C105.972 26.7873 105.969 26.7168 105.968 26.6464C105.969 26.576 105.972 26.5055 105.972 26.435C105.973 26.2357 105.974 26.0366 105.972 25.8389C105.972 25.8378 105.972 25.8366 105.972 25.8354C105.968 25.4411 105.956 25.0518 105.94 24.664C105.94 24.6628 105.941 24.6617 105.94 24.6605C105.933 24.4672 105.924 24.2734 105.913 24.0817C105.913 24.0806 105.913 24.0794 105.913 24.0783C105.836 22.73 105.682 21.4276 105.452 20.1723V20.1688C105.419 19.9905 105.387 19.8114 105.351 19.6351V19.6316C105.243 19.1006 105.118 18.5798 104.98 18.0685C104.98 18.0674 104.981 18.0662 104.98 18.0651C104.935 17.8954 104.887 17.7265 104.838 17.5591C104.838 17.558 104.838 17.5567 104.838 17.5556C104.789 17.3882 104.738 17.2216 104.686 17.0565C104.685 17.0555 104.686 17.054 104.686 17.0531C104.633 16.888 104.578 16.7236 104.523 16.5609C104.467 16.3982 104.408 16.236 104.349 16.0757C104.349 16.0747 104.35 16.0732 104.349 16.0722C104.29 15.912 104.231 15.7518 104.169 15.594C104.169 15.593 104.169 15.5915 104.169 15.5905C104.044 15.2739 103.912 14.9646 103.774 14.6582C103.773 14.6573 103.774 14.6557 103.774 14.6547C103.705 14.502 103.631 14.3508 103.559 14.2007C103.558 14.1998 103.559 14.1981 103.559 14.1972C103.486 14.0472 103.413 13.8976 103.337 13.7502C103.337 13.7493 103.337 13.7476 103.337 13.7467C103.109 13.3027 102.862 12.873 102.602 12.4539C102.601 12.4532 102.603 12.4514 102.602 12.4505C102.516 12.3114 102.425 12.1743 102.335 12.038C102.335 12.0373 102.336 12.0354 102.335 12.0346C102.065 11.6242 101.778 11.2293 101.475 10.8458C101.475 10.8451 101.476 10.843 101.475 10.8423C101.375 10.715 101.271 10.5889 101.167 10.4646C101.166 10.4639 101.167 10.4618 101.167 10.4611C101.063 10.3368 100.956 10.2149 100.848 10.0937C100.847 10.0931 100.848 10.0909 100.848 10.0903C100.415 9.60351 99.9525 9.1421 99.4612 8.70741C98.8462 8.16333 98.1841 7.66365 97.4747 7.20671C97.3329 7.11532 97.1906 7.02413 97.0449 6.93638C96.7534 6.76087 96.4539 6.59104 96.147 6.43037C95.9935 6.35002 95.8363 6.27124 95.679 6.19469C95.3643 6.04158 95.0422 5.89567 94.7118 5.758C94.5466 5.68915 94.3782 5.62535 94.2091 5.56044C93.7016 5.36571 93.1787 5.18863 92.6352 5.03017C92.454 4.97735 92.2692 4.92637 92.084 4.87768C91.3432 4.68291 90.571 4.51917 89.7647 4.39246C89.3616 4.3291 88.9503 4.27531 88.5306 4.22957C87.4813 4.11505 86.3817 4.05613 85.2268 4.05613C84.448 4.05613 83.7123 4.04791 83.0081 4.05613C82.656 4.06026 82.3142 4.06834 81.975 4.08385C81.8055 4.09161 81.6359 4.09981 81.4689 4.11158C81.1348 4.13514 80.8043 4.1678 80.4774 4.21209C79.9055 4.28956 79.341 4.40535 78.7753 4.57253C78.6136 4.62031 78.4521 4.67165 78.2899 4.7285C77.9646 4.8425 77.6393 4.97532 77.3088 5.13053C77.2264 5.1692 77.1456 5.21037 77.0627 5.25184L64.8668 5.27956L63.5182 1.80681C63.4787 1.71476 63.4246 1.63121 63.3553 1.5538C63.3542 1.55264 63.3529 1.55152 63.3518 1.55034C63.2135 1.39717 63.0235 1.27097 62.8214 1.18296C62.7536 1.15347 62.6831 1.12813 62.6134 1.10672C62.5796 1.09637 62.5432 1.08738 62.5094 1.07899C62.4746 1.07037 62.4399 1.06122 62.4054 1.05473C62.302 1.03522 62.2014 1.02645 62.1073 1.027V1.02699V1.02699Z" stroke="black" stroke-width="1.5"/>
<path d="M104.096 15.2445L103.531 15.1786C101.141 14.9 99.3501 12.2975 99.1734 9.13078L99.1318 8.34058L99.7142 8.87778C101.477 10.5059 102.854 12.4831 103.864 14.7281L104.096 15.2445V15.2445Z" fill="#212121" stroke="#191919"/>
<path d="M104.096 38.0485L103.531 38.1143C101.141 38.393 99.3501 40.9955 99.1734 44.1622L99.1318 44.9524L99.7142 44.4152C101.477 42.787 102.854 40.8099 103.864 38.5649L104.096 38.0485V38.0485Z" fill="#212121" stroke="#191919"/>
<path opacity="0.9" d="M23.2765 13.6357L14.6513 15.0186C11.6394 15.5015 9.22133 20.4278 8.99365 26.6465C9.22133 32.8651 11.6394 37.7914 14.6513 38.2743L23.2765 39.6572C24.7515 39.6572 25.939 38.47 25.939 36.9954V16.2975C25.939 14.8229 24.7515 13.6357 23.2765 13.6357V13.6357Z" fill="#262626" stroke="#191919" stroke-width="0.5"/>
<path opacity="0.9" d="M71.1418 9.84058C70.8124 9.84058 70.488 9.87741 70.1676 9.94802C70.1665 9.94691 70.1653 9.94569 70.1642 9.94456L63.0817 11.3101C61.115 12.0426 59.5317 12.8929 59.5317 14.8591V38.4336C59.5317 40.3998 61.115 41.2501 63.0817 41.9827L70.1642 43.3482C70.1653 43.3471 70.1665 43.3458 70.1676 43.3447C70.488 43.4153 70.8124 43.4522 71.1418 43.4522C76.1778 43.4522 80.2605 37.0903 80.2731 26.6464C80.2605 16.2025 76.1778 9.84059 71.1418 9.84059L71.1418 9.84058Z" fill="#262626" stroke="#191919" stroke-width="0.5"/>
<path opacity="0.9" d="M38.7902 12.1682C35.089 12.1682 31.5453 11.9686 28.2722 11.6067C31.1189 6.20406 39.1423 8.2501 51.0763 8.1097C56.5883 8.04485 61.0099 7.90128 64.5584 7.8463C59.3267 10.4342 49.7454 12.1682 38.7902 12.1682V12.1682Z" fill="#262626"/>
<path opacity="0.5" d="M38.7903 12.1683C38.4346 12.1683 38.0822 12.1651 37.7295 12.1614C37.8203 10.3679 38.4426 8.80577 39.3485 7.85339C39.8667 7.86178 40.4018 7.87519 40.9501 7.89152C39.9998 8.8001 39.3312 10.3567 39.2063 12.1683C39.0675 12.1689 38.9296 12.1683 38.7903 12.1683V12.1683Z" fill="black"/>
<path opacity="0.9" d="M38.7903 12.444C35.079 12.444 31.5248 12.2455 28.2411 11.8825L27.8354 11.8375L28.0261 11.477C28.7662 10.0724 29.8634 9.1354 31.2502 8.54492C32.6369 7.95444 34.3089 7.70063 36.2527 7.60915C40.1401 7.42618 45.1225 7.90097 51.0729 7.83096C56.5818 7.76615 61.0026 7.6226 64.555 7.56756L64.6798 8.09436C59.3716 10.7201 49.7747 12.444 38.7903 12.444ZM38.7903 11.8894C48.9043 11.8894 57.8433 10.3946 63.2064 8.14982C59.8836 8.21441 55.972 8.32793 51.0798 8.38549C45.0962 8.45589 40.0998 7.98044 36.2804 8.16021C34.3707 8.2501 32.7563 8.50462 31.4651 9.0544C30.3055 9.54816 29.4144 10.2915 28.7472 11.373C31.8875 11.7039 35.263 11.8894 38.7903 11.8894V11.8894Z" fill="#191919"/>
<path opacity="0.9" d="M38.7902 41.1245C35.089 41.1245 31.5453 41.3241 28.2722 41.686C31.1189 47.0886 39.1423 45.0426 51.0763 45.183C56.5883 45.2478 61.0099 45.3914 64.5584 45.4464C59.3267 42.8585 49.7454 41.1245 38.7902 41.1245V41.1245Z" fill="#262626"/>
<path opacity="0.5" d="M38.7903 41.1245C38.4346 41.1245 38.0822 41.1278 37.7295 41.1314C37.8203 42.9249 38.4426 44.4871 39.3485 45.4395C39.8667 45.4311 40.4018 45.4177 40.9501 45.4013C39.9998 44.4928 39.3312 42.9361 39.2063 41.1245C39.0675 41.124 38.9296 41.1245 38.7903 41.1245V41.1245Z" fill="black"/>
<path opacity="0.9" d="M38.7903 40.8488C35.079 40.8488 31.5248 41.0472 28.2411 41.4102L27.8354 41.4553L28.0261 41.8157C28.7662 43.2203 29.8634 44.1573 31.2502 44.7478C32.6369 45.3383 34.3089 45.5921 36.2527 45.6836C40.1401 45.8666 45.1225 45.3918 51.0729 45.4618C56.5818 45.5266 61.0026 45.6701 64.555 45.7252L64.6798 45.1984C59.3716 42.5726 49.7747 40.8488 38.7903 40.8488ZM38.7903 41.4033C48.9043 41.4033 57.8433 42.8982 63.2064 45.1429C59.8836 45.0783 55.972 44.9648 51.0798 44.9072C45.0962 44.8368 40.0998 45.3123 36.2804 45.1325C34.3707 45.0426 32.7563 44.7881 31.4651 44.2383C30.3055 43.7446 29.4144 43.0012 28.7472 41.9197C31.8875 41.5889 35.263 41.4033 38.7903 41.4033V41.4033Z" fill="#191919"/>
<path opacity="0.5" d="M81.2932 39.268C81.2932 39.268 90.1323 36.7619 92.9833 35.721C95.9608 34.6339 103.95 31.3795 103.95 31.3795C103.95 31.3795 102.981 36.0897 100.569 37.803C92.0018 43.8884 74.7554 43.7757 74.7554 43.7757" stroke="black" stroke-width="0.5" stroke-linecap="round" stroke-linejoin="round"/>
<path d="M90.8888 36.9767L90.3966 37.2366C90.5063 37.3649 90.5957 37.506 90.66 37.6629C91.1923 38.9624 89.469 40.9054 87.6787 41.6313C87.6213 41.6545 87.4775 41.7245 87.3008 41.815L88.8123 41.3852C90.7321 40.4472 91.8597 38.8253 91.3638 37.6144C91.2621 37.3663 91.1003 37.1524 90.8888 36.9767Z" fill="url(#paint0_linear_9_292)"/>
<path d="M91.8412 36.4818L91.349 36.7417C91.4587 36.87 91.5481 37.0111 91.6124 37.168C92.1447 38.4675 90.4214 40.4105 88.631 41.1364C88.5737 41.1597 88.4299 41.2296 88.2532 41.3201L89.7647 40.8903C91.6845 39.9523 92.8121 38.3304 92.3162 37.1195C92.2145 36.8714 92.0527 36.6575 91.8412 36.4818Z" fill="url(#paint1_linear_9_292)"/>
<path d="M92.5273 36.3251L92.035 36.585C92.1447 36.7133 92.2342 36.8544 92.2985 37.0113C92.8307 38.3108 91.1075 40.2538 89.3171 40.9797C89.2598 41.0029 89.116 41.0729 88.9392 41.1634L90.4507 40.7336C92.3705 39.7956 93.4982 38.1737 93.0022 36.9628C92.9006 36.7146 92.7387 36.5007 92.5273 36.3251Z" fill="url(#paint2_linear_9_292)"/>
<path d="M94.4033 35.8511L93.7169 36.0556C93.8234 36.2455 93.9004 36.4473 93.9422 36.6621C94.2883 38.4403 91.6168 40.4643 89.1686 40.932C88.7919 41.0039 85.9643 41.8831 85.6011 41.9084V42.3659L90.1982 41.0186C93.1142 40.409 95.1846 38.529 94.8436 36.7764C94.7775 36.4369 94.6266 36.1266 94.4033 35.8511V35.8511Z" fill="url(#paint3_linear_9_292)"/>
<path d="M94.4033 35.8511L93.7169 36.0556C93.8234 36.2455 93.9004 36.4473 93.9422 36.6621C94.2883 38.4403 91.6168 40.4643 89.1686 40.932C88.7919 41.0039 85.9643 41.8831 85.6011 41.9084V42.3659L90.1982 41.0186C93.1142 40.409 95.1846 38.529 94.8436 36.7764C94.7775 36.4369 94.6266 36.1266 94.4033 35.8511V35.8511Z" fill="url(#paint4_linear_9_292)"/>
<path d="M89.4638 37.489L89.0241 37.7212C89.1221 37.8358 89.202 37.9618 89.2594 38.102C89.7349 39.2629 88.1955 40.9986 86.5961 41.6471C86.5449 41.6678 86.4164 41.7304 86.2585 41.8112L87.6088 41.4273C89.3238 40.5893 90.3312 39.1404 89.8881 38.0587C89.7973 37.837 89.6527 37.6459 89.4638 37.489V37.489Z" fill="url(#paint5_linear_9_292)"/>
<path d="M87.9321 37.8853L87.4923 38.1175C87.5904 38.2321 87.6703 38.3581 87.7277 38.4983C88.2032 39.6591 86.6638 41.3948 85.0644 42.0433C85.0132 42.0641 84.8847 42.1266 84.7268 42.2074L86.0771 41.8235C87.7921 40.9856 88.7994 39.5366 88.3564 38.4549C88.2656 38.2333 88.121 38.0422 87.9321 37.8853V37.8853Z" fill="url(#paint6_linear_9_292)"/>
<path d="M20.2557 40.0693C21.1757 39.8449 21.9736 39.9053 22.4519 40.7111L22.1753 42.696C21.4126 43.3807 20.6499 43.2451 19.8872 42.7132L20.2557 40.0693V40.0693Z" fill="url(#paint7_linear_9_292)"/>
<path d="M22.505 40.4314C23.4091 40.2972 24.1875 40.3678 24.5953 41.0423L24.3321 42.9314C23.6128 43.2613 22.8918 43.5092 22.1543 42.9478L22.505 40.4314V40.4314Z" fill="url(#paint8_linear_9_292)"/>
<path opacity="0.5" d="M81.2932 14.0246C81.2932 14.0246 90.1323 16.5307 92.9833 17.5716C95.9608 18.6586 103.95 21.9131 103.95 21.9131C103.95 21.9131 102.981 17.2029 100.569 15.4896C92.0018 9.40417 74.7554 9.51687 74.7554 9.51687" stroke="black" stroke-width="0.5" stroke-linecap="round" stroke-linejoin="round"/>
<path d="M90.8888 16.316L90.3966 16.056C90.5063 15.9277 90.5957 15.7867 90.66 15.6297C91.1923 14.3302 89.469 12.3873 87.6787 11.6613C87.6213 11.6381 87.4775 11.5681 87.3008 11.4777L88.8123 11.9074C90.7321 12.8454 91.8597 14.4674 91.3638 15.6782C91.2621 15.9264 91.1003 16.1403 90.8888 16.316Z" fill="url(#paint9_linear_9_292)"/>
<path d="M91.8412 16.8107L91.349 16.5508C91.4587 16.4225 91.5481 16.2814 91.6124 16.1245C92.1447 14.825 90.4214 12.882 88.631 12.1561C88.5737 12.1329 88.4299 12.0629 88.2532 11.9724L89.7647 12.4022C91.6845 13.3402 92.8121 14.9621 92.3162 16.173C92.2145 16.4211 92.0527 16.635 91.8412 16.8107Z" fill="url(#paint10_linear_9_292)"/>
<path d="M92.5273 16.9677L92.035 16.7077C92.1447 16.5795 92.2342 16.4384 92.2985 16.2815C92.8307 14.982 91.1075 13.039 89.3171 12.3131C89.2598 12.2898 89.116 12.2199 88.9392 12.1294L90.4507 12.5592C92.3705 13.4972 93.4982 15.1191 93.0022 16.33C92.9006 16.5781 92.7387 16.792 92.5273 16.9677Z" fill="url(#paint11_linear_9_292)"/>
<path d="M94.4033 17.4414L93.7169 17.2369C93.8234 17.0469 93.9004 16.8451 93.9422 16.6304C94.2883 14.8521 91.6168 12.8281 89.1686 12.3605C88.7919 12.2885 85.9643 11.4093 85.6011 11.384V10.9265L90.1982 12.2738C93.1142 12.8834 95.1846 14.7635 94.8436 16.516C94.7775 16.8556 94.6266 17.1659 94.4033 17.4414V17.4414Z" fill="url(#paint12_linear_9_292)"/>
<path d="M94.4033 17.4414L93.7169 17.2369C93.8234 17.0469 93.9004 16.8451 93.9422 16.6304C94.2883 14.8521 91.6168 12.8281 89.1686 12.3605C88.7919 12.2885 85.9643 11.4093 85.6011 11.384V10.9265L90.1982 12.2738C93.1142 12.8834 95.1846 14.7635 94.8436 16.516C94.7775 16.8556 94.6266 17.1659 94.4033 17.4414V17.4414Z" fill="url(#paint13_linear_9_292)"/>
<path d="M89.4638 15.8037L89.0241 15.5715C89.1221 15.4569 89.202 15.3309 89.2594 15.1907C89.7349 14.0298 88.1955 12.2941 86.5961 11.6457C86.5449 11.6249 86.4164 11.5624 86.2585 11.4816L87.6088 11.8655C89.3238 12.7034 90.3312 14.1523 89.8881 15.234C89.7973 15.4557 89.6527 15.6468 89.4638 15.8037V15.8037Z" fill="url(#paint14_linear_9_292)"/>
<path d="M87.9321 15.4072L87.4923 15.175C87.5904 15.0604 87.6703 14.9344 87.7277 14.7942C88.2032 13.6333 86.6638 11.8976 85.0644 11.2492C85.0132 11.2284 84.8847 11.1659 84.7268 11.0851L86.0771 11.469C87.7921 12.3069 88.7994 13.7558 88.3564 14.8376C88.2656 15.0592 88.121 15.2503 87.9321 15.4072V15.4072Z" fill="url(#paint15_linear_9_292)"/>
<path d="M20.2557 13.2233C21.1757 13.4477 21.9736 13.3873 22.4519 12.5815L22.1753 10.5966C21.4126 9.91196 20.6499 10.0475 19.8872 10.5794L20.2557 13.2233V13.2233Z" fill="url(#paint16_linear_9_292)"/>
<path d="M22.505 12.8614C23.4091 12.9956 24.1875 12.9249 24.5953 12.2505L24.3321 10.3614C23.6128 10.0314 22.8918 9.78357 22.1543 10.3449L22.505 12.8614V12.8614Z" fill="url(#paint17_linear_9_292)"/>
<defs>
<linearGradient id="paint0_linear_9_292" x1="91.9671" y1="39.3958" x2="89.3447" y2="38.7525" gradientUnits="userSpaceOnUse">
<stop stop-color="#1A1A1A"/>
<stop offset="1" stop-color="#F30000" stop-opacity="0"/>
</linearGradient>
<linearGradient id="paint1_linear_9_292" x1="95.2651" y1="37.9108" x2="93.9589" y2="37.9161" gradientUnits="userSpaceOnUse">
<stop stop-color="#1A1A1A"/>
<stop offset="1" stop-color="#F30000" stop-opacity="0"/>
</linearGradient>
<linearGradient id="paint2_linear_9_292" x1="95.0625" y1="38.7683" x2="87.935" y2="38.3049" gradientUnits="userSpaceOnUse">
<stop stop-color="#1A1A1A"/>
<stop offset="1" stop-color="#F30000" stop-opacity="0"/>
</linearGradient>
<linearGradient id="paint3_linear_9_292" x1="96.2924" y1="39.4682" x2="95.1987" y2="38.3108" gradientUnits="userSpaceOnUse">
<stop stop-color="#1A1A1A"/>
<stop offset="1" stop-color="#F30000" stop-opacity="0"/>
</linearGradient>
<linearGradient id="paint4_linear_9_292" x1="94.4603" y1="40.5388" x2="91.6175" y2="33.9684" gradientUnits="userSpaceOnUse">
<stop stop-color="#1A1A1A"/>
<stop offset="1" stop-color="#F30000" stop-opacity="0"/>
</linearGradient>
<linearGradient id="paint5_linear_9_292" x1="92.8239" y1="38.7208" x2="84.6268" y2="38.8134" gradientUnits="userSpaceOnUse">
<stop stop-color="#1A1A1A"/>
<stop offset="1" stop-color="#F30000" stop-opacity="0"/>
</linearGradient>
<linearGradient id="paint6_linear_9_292" x1="90.4983" y1="40.0231" x2="83.7701" y2="39.7271" gradientUnits="userSpaceOnUse">
<stop stop-color="#1A1A1A"/>
<stop offset="1" stop-color="#F30000" stop-opacity="0"/>
</linearGradient>
<linearGradient id="paint7_linear_9_292" x1="22.4521" y1="42.0298" x2="19.8009" y2="41.3599" gradientUnits="userSpaceOnUse">
<stop stop-color="#1A1A1A"/>
<stop offset="1" stop-color="#F30000" stop-opacity="0"/>
</linearGradient>
<linearGradient id="paint8_linear_9_292" x1="24.5956" y1="42.2642" x2="22.1413" y2="41.9829" gradientUnits="userSpaceOnUse">
<stop stop-color="#1A1A1A"/>
<stop offset="1" stop-color="#F30000" stop-opacity="0"/>
</linearGradient>
<linearGradient id="paint9_linear_9_292" x1="91.9671" y1="13.8968" x2="89.3447" y2="14.5401" gradientUnits="userSpaceOnUse">
<stop stop-color="#1A1A1A"/>
<stop offset="1" stop-color="#F30000" stop-opacity="0"/>
</linearGradient>
<linearGradient id="paint10_linear_9_292" x1="95.2651" y1="15.3817" x2="93.9589" y2="15.3763" gradientUnits="userSpaceOnUse">
<stop stop-color="#1A1A1A"/>
<stop offset="1" stop-color="#F30000" stop-opacity="0"/>
</linearGradient>
<linearGradient id="paint11_linear_9_292" x1="95.0625" y1="14.5244" x2="87.935" y2="14.9879" gradientUnits="userSpaceOnUse">
<stop stop-color="#1A1A1A"/>
<stop offset="1" stop-color="#F30000" stop-opacity="0"/>
</linearGradient>
<linearGradient id="paint12_linear_9_292" x1="96.2924" y1="13.8242" x2="95.1987" y2="14.9816" gradientUnits="userSpaceOnUse">
<stop stop-color="#1A1A1A"/>
<stop offset="1" stop-color="#F30000" stop-opacity="0"/>
</linearGradient>
<linearGradient id="paint13_linear_9_292" x1="94.4603" y1="12.7536" x2="91.6175" y2="19.324" gradientUnits="userSpaceOnUse">
<stop stop-color="#1A1A1A"/>
<stop offset="1" stop-color="#F30000" stop-opacity="0"/>
</linearGradient>
<linearGradient id="paint14_linear_9_292" x1="92.8239" y1="14.5719" x2="84.6268" y2="14.4793" gradientUnits="userSpaceOnUse">
<stop stop-color="#1A1A1A"/>
<stop offset="1" stop-color="#F30000" stop-opacity="0"/>
</linearGradient>
<linearGradient id="paint15_linear_9_292" x1="90.4983" y1="13.2694" x2="83.7701" y2="13.5653" gradientUnits="userSpaceOnUse">
<stop stop-color="#1A1A1A"/>
<stop offset="1" stop-color="#F30000" stop-opacity="0"/>
</linearGradient>
<linearGradient id="paint16_linear_9_292" x1="22.4521" y1="11.2628" x2="19.8009" y2="11.9327" gradientUnits="userSpaceOnUse">
<stop stop-color="#1A1A1A"/>
<stop offset="1" stop-color="#F30000" stop-opacity="0"/>
</linearGradient>
<linearGradient id="paint17_linear_9_292" x1="24.5956" y1="11.0286" x2="22.1413" y2="11.3099" gradientUnits="userSpaceOnUse">
<stop stop-color="#1A1A1A"/>
<stop offset="1" stop-color="#F30000" stop-opacity="0"/>
</linearGradient>
</defs>
</svg>
